<svg version="1.2" xmlns="http://www.w3.org/2000/svg" viewBox="0 0 460 128" width="460" height="128"><style>.dark .zeina-logo{fill:white} .zeina-logo{fill:#22282f}</style><path class="zeina-logo" d="m354.1 46c0 0 2.9-2.3 12.9-3h30c23.3 2.5 22 18 22 18v59h-27v-48c0.3-6.5-4-8-4-8h-33.8z"/><path class="zeina-logo" d="m386 74v14h-6c0 0-2.9 0.7-3 3v7c0 0 0.8 2.5 3 3h6v16c-2 4-7 4-7 4h-16c0 0-12.1-2.7-14-18v-12c0 0 0.1-14.1 15-17z"/><path class="zeina-logo" d="m318.9 44.9c14 1.4 17.1 15.1 17.1 15.1v60h-28v-46c0 0-3.2-13.7-16-3.7v-22.3c0 0 13-4.6 26.9-3.1z"/><path class="zeina-logo" d="m219 43h29v77h-29z"/><path class="zeina-logo" d="m219 8h29v23h-29z"/><path class="zeina-logo" d="m264 43h29v77h-29z"/><path class="zeina-logo" d="m167 42v20h7c4.2 1.2 4 5.6 4 5.6v6.4h-11v14h38v-23c0 0 0-19.8-22-23z"/><path class="zeina-logo" d="m133.7 77.8c-0.3-28.8 8.6-30.7 23.3-35.8h5v52c1.7 6 4 5 4 5h36v19c0 0-2 2.6-10 3h-36c-24.5-6.3-22.1-23.8-22.3-43.2z"/><path class="zeina-logo" d="m121 97v23h-52l17-23z"/><path class="zeina-logo" d="m80 46h35l-54 74h-20v-22z"/><path class="zeina-logo" d="m43 17h78v23h-78z"/></svg>